# xmcd CD database file
#
# Track frame offsets:
#	150
#	16666
#	31886
#	54002
#	65350
#	76297
#	86728
#	104631
#	115926
#	131741
#	149964
#	163737
#	173689
#	190845
#	203961
#	213284
#
# Disc length: 2990 seconds
#
# Revision: 0
# Processed by: cddbd v1.5.2PL0 Copyright (c) Steve Scherf et al.
# Submitted via: CDex 1.51
#
DISCID=de0bac10
DTITLE=Mr Blue - Free Born Man
DYEAR=1900
DGENRE=Country
TTITLE0=Free Born Man
TTITLE1=Cadillac Ranch 
TTITLE2=Ghostriders  in the sky
TTITLE3=Bury Me 
TTITLE4=Little Ole Wine Drinker Me 
TTITLE5=Devil in Disguise
TTITLE6=Ring of Fire (Johnny Cash)
TTITLE7=Teenage Heaven
TTITLE8=Rocky Top  Tennessee
TTITLE9=Can't be Satisfied 
TTITLE10=Bullfrog Blues
TTITLE11=Thanks God  I'm a countryboy
TTITLE12=Seventy Coupe
TTITLE13=In the middle of all the trouble again
TTITLE14=Foggy mountain breakdown
TTITLE15=Motorbiene
EXTD=
EXTT0=
EXTT1=
EXTT2=
EXTT3=
EXTT4=
EXTT5=
EXTT6=
EXTT7=
EXTT8=
EXTT9=
EXTT10=
EXTT11=
EXTT12=
EXTT13=
EXTT14=
EXTT15=
PLAYORDER=
